<?xml version="1.0" encoding="UTF-8"?>
<svg id="Layer_1" data-name="Layer 1" xmlns="http://www.w3.org/2000/svg" version="1.1" viewBox="0 0 1920 1080">
  <defs>
    <style>
      .cls-1 {
        fill: #4b66af;
      }

      .cls-1, .cls-2 {
        stroke-width: 0px;
      }

      .cls-3, .cls-4, .cls-5 {
        isolation: isolate;
      }

      .cls-4 {
        fill: #232262;
        font-family: VladimirScript, 'Vladimir Script';
        font-size: 111.92px;
      }

      .cls-2 {
        fill: #63afe0;
      }

      .cls-5 {
        fill: #272361;
        font-family: TimesNewRomanPSMT, 'Times New Roman';
        font-size: 166.47px;
      }
    </style>
  </defs>
  <g class="cls-3">
    <text class="cls-4" transform="translate(76.32 539.97) scale(1.3 1)"><tspan x="0" y="0">Education through Excellence</tspan></text>
  </g>
  <g class="cls-3">
    <text class="cls-5" transform="translate(8 436.34) scale(1.12 1)"><tspan x="0" y="0">WearView Academy</tspan></text>
  </g>
  <path class="cls-1" d="M1361.66,666.85c-286.47-8.89-340.09-91.36-598.39-88.8-158.5,1.56-306.21,34.28-303.87,40.8,1.68,4.67,81.43-1.42,142.59-2.4,345.79-5.56,452.68,146.28,787.73,159.62,166.99,6.65,378.3-21.6,472.17-98.41,9.57-7.83,77.64-65.37,39.74-124.81-60.47-94.85-342.06-118.19-343.61-116.42-1.13,1.31,147.72,16.47,191.67,74.41,24.79,32.68,11.6,72.89-25.71,100.81-85.26,63.8-288.55,57.49-362.31,55.2h-.01Z"/>
  <path class="cls-2" d="M1367.68,646.9c-213.61-5.36-253.59-55.08-446.18-53.53-118.18.95-228.32,20.67-226.58,24.6,1.25,2.81,60.71-.85,106.32-1.45,257.83-3.35,337.54,88.17,587.36,96.21,124.51,4.01,282.08-13.02,352.06-59.32,7.14-4.72,57.89-39.41,29.63-75.23-45.09-57.17-255.06-71.24-256.21-70.17-.84.78,110.15,9.93,142.92,44.85,18.48,19.69,8.64,43.94-19.17,60.77-63.57,38.46-215.15,34.66-270.15,33.27h.01Z"/>
</svg>